<svg xmlns="http://www.w3.org/2000/svg" width="512" height="512" viewBox="0 0 512 512"><mask id="a"><circle cx="256" cy="256" r="256" fill="#fff"/></mask><g mask="url(#a)"><path d="m0 512h167l37.9-260.3-37.9-251.7h-167z" fill="#6da544"/><path d="m512 0h-345v512h345z" fill="#d80027"/><circle cx="167" cy="256" r="89" fill="#ffda44"/><path d="m108.5 202.6v64.9c0 20.9 11.1 40.1 29.2 50.6 18.1 10.4 40.4 10.4 58.5 0 18.1-10.5 29.2-29.7 29.2-50.6v-65h-116.8z" fill="#d80027"/><path d="m167 304.2c-18.9 0-34.3-15.4-34.3-34.3v-45.3h68.6v45.1c0 18.9-15.4 34.3-34.3 34.3z" fill="#eee"/><g fill="#0052b4"><path d="m167 249.6c-3.7 0-6.8-3-6.8-6.7v-9h13.6v8.9c0 3.8-3.1 6.8-6.8 6.8z"/><path d="m167 292.8c-3.7 0-6.8-3.1-6.8-6.8v-8.9h13.6v8.9c0 3.7-3.1 6.7-6.8 6.7z"/><path d="m167 271.2c-3.7 0-6.8-3-6.8-6.8v-8.9h13.6v8.9c0 3.7-3.1 6.8-6.8 6.8z"/><path d="m147.2 271.2c-3.7 0-6.7-3-6.7-6.8v-8.9h13.5v8.9c0 3.7-3 6.8-6.8 6.8z"/><path d="m186.8 271.2c-3.8 0-6.8-3-6.8-6.8v-8.9h13.5v8.9c0 3.7-3 6.8-6.7 6.8z"/></g></g></svg>
